<svg width="96" height="96" viewBox="0 0 96 96" fill="none" xmlns="http://www.w3.org/2000/svg">
<g clip-path="url(#clip0_772_12562)">
<path d="M48 96C74.5097 96 96 74.5097 96 48C96 21.4903 74.5097 0 48 0C21.4903 0 0 21.4903 0 48C0 74.5097 21.4903 96 48 96Z" fill="white"/>
<path d="M48 90C71.196 90 90 71.196 90 48C90 24.804 71.196 6 48 6C24.804 6 6 24.804 6 48C6 71.196 24.804 90 48 90Z" fill="url(#paint0_linear_772_12562)"/>
<path d="M48 89.9999C71.1803 89.9999 90 71.1803 90 47.9999C90 47.1584 90 46.3169 89.9235 45.4753C89.235 56.1857 84.5683 66.1311 76.765 73.4753C68.9617 80.8196 58.7104 84.8743 48 84.8743C37.2896 84.8743 27.0383 80.8196 19.235 73.4753C11.4317 66.1311 6.76503 56.1857 6.0765 45.4753C6 46.3169 6 47.1584 6 47.9999C6 71.1803 24.8197 89.9999 48 89.9999Z" fill="#050C38" fill-opacity="0.05"/>
<path d="M48 74C33.6435 74 22 62.3565 22 48C22 33.6435 33.6435 22 48 22C62.3565 22 74 33.6435 74 48C74 62.3565 62.3565 74 48 74ZM25.7982 53.7426C27.8782 61.7913 34.2087 68.1444 42.28 70.2244C40.3582 67.3756 38.8887 63.0574 38.0748 57.9478C32.92 57.1339 28.6469 55.6644 25.7982 53.7426ZM25.7982 42.2348C28.6244 40.3356 32.8974 38.8887 38.0522 38.0522C38.8661 32.9426 40.3356 28.6244 42.2574 25.7756C34.2087 27.8556 27.8782 34.1861 25.7982 42.2348ZM37.6452 41.24C29.9809 42.6418 25.0748 45.4452 25.0748 48C25.0748 50.6452 30.1391 53.3809 37.6452 54.76C37.4191 52.6122 37.3061 50.3287 37.3061 48C37.3061 45.6713 37.4191 43.4104 37.6452 41.24ZM63.2835 56.7722C63.1026 60.2991 60.2765 63.1252 56.7496 63.3061C55.9582 66.1095 54.9409 68.4609 53.7426 70.2244C61.8139 68.1444 68.1444 61.814 70.2244 53.7652C68.4382 54.9635 66.0869 55.9582 63.2835 56.7722ZM62.7635 53.7426C67.9635 52.2052 70.9478 49.9669 70.9478 48.0226C70.9478 45.3322 65.8609 42.6191 58.3774 41.2626C58.6035 43.4104 58.7165 45.6713 58.7165 48.0226C58.7165 48.6556 58.7165 49.3113 58.6939 49.9444C60.5252 50.5548 61.9948 51.9565 62.7635 53.7426ZM57.9478 38.0522C63.0574 38.8661 67.3531 40.3356 70.2244 42.2574C68.1444 34.2087 61.8139 27.8556 53.7426 25.7756C55.6644 28.6469 57.1339 32.9426 57.9478 38.0522ZM41.24 58.3774C42.5965 65.8609 45.3096 70.9478 48 70.9478C49.9444 70.9478 52.1826 67.9409 53.72 62.7635C51.5044 61.8365 49.8991 59.7565 49.5826 57.3374V57.3148C49.5374 57.0209 49.5148 56.7269 49.5148 56.4331C49.5148 52.9061 52.1826 49.9896 55.6191 49.6052C55.6417 49.0852 55.6418 48.5652 55.6418 48.0226C55.6418 45.4904 55.4835 43.0713 55.2122 40.7878C52.9513 40.5165 50.5096 40.3582 47.9774 40.3582C47.2313 40.3582 46.4852 40.3809 45.7391 40.4035C44.9026 40.4261 44.1791 39.7704 44.1565 38.9339C44.1339 38.0974 44.7896 37.3739 45.6261 37.3513C46.3948 37.3287 47.1861 37.3061 47.9774 37.3061C50.3061 37.3061 52.5669 37.4191 54.7374 37.6452C53.3809 30.1617 50.6678 25.0748 47.9774 25.0748C44.1565 25.0748 40.3356 35.2939 40.3356 48.0226C40.3356 50.5548 40.4939 52.9739 40.7652 55.2574C42.1218 55.4156 43.5461 55.5287 44.9931 55.5965C45.8296 55.6418 46.4852 56.3426 46.44 57.2017C46.3948 58.0382 45.694 58.6939 44.8348 58.6487C43.6365 58.5809 42.4382 58.4904 41.24 58.3774ZM56.4104 60.2313C58.5131 60.2313 60.2313 58.5131 60.2313 56.4104C60.2313 54.3078 58.5131 52.5896 56.4104 52.5896C54.3078 52.5896 52.5896 54.3078 52.5896 56.4104C52.5896 58.5131 54.3078 60.2313 56.4104 60.2313Z" fill="white"/>
</g>
<defs>
<linearGradient id="paint0_linear_772_12562" x1="74.9973" y1="80.1738" x2="21.0028" y2="15.8263" gradientUnits="userSpaceOnUse">
<stop stop-color="#26568E"/>
<stop offset="0.4" stop-color="#3C6BAC"/>
<stop offset="1" stop-color="#3D6CAD"/>
</linearGradient>
<clipPath id="clip0_772_12562">
<rect width="96" height="96" fill="white"/>
</clipPath>
</defs>
</svg>
