<svg width="99" height="98" viewBox="0 0 99 98" fill="none" xmlns="http://www.w3.org/2000/svg">
<rect opacity="0.05" x="0.5" width="98" height="98" rx="25" fill="#00B0F5"/>
<rect opacity="0.1" x="10.5" y="10" width="78" height="78" rx="25" fill="#00B0F5"/>
<path d="M30.125 28.6251C30.125 27.1615 31.3114 25.9751 32.775 25.9751H61.925C63.3886 25.9751 64.575 27.1615 64.575 28.6251V64.4001C64.575 65.8636 63.3886 67.0501 61.925 67.0501H32.775C31.3114 67.0501 30.125 65.8637 30.125 64.4001V28.6251Z" fill="#2E85FF"/>
<path d="M35.4248 68.3749C35.4248 69.8385 36.6113 71.0249 38.0748 71.0249H67.2248C68.6884 71.0249 69.8748 69.8385 69.8748 68.3749V44.8749C69.8748 44.2229 69.6344 43.5938 69.1997 43.1079L59.4024 32.1579C58.8996 31.596 58.1814 31.2749 57.4275 31.2749H38.0748C36.6113 31.2749 35.4248 32.4613 35.4248 33.9249V68.3749Z" fill="url(#paint0_linear)"/>
<rect x="42.0498" y="43.2" width="13.25" height="5.9625" fill="white"/>
<rect x="42.0498" y="52.4751" width="20.5375" height="1.9875" fill="#90E0FF"/>
<rect x="42.0498" y="57.1125" width="20.5375" height="1.9875" fill="#90E0FF"/>
<rect x="42.0498" y="61.75" width="20.5375" height="1.9875" fill="#90E0FF"/>
<path fill-rule="evenodd" clip-rule="evenodd" d="M69.8516 44.5249C69.7817 44.0005 69.556 43.5061 69.1997 43.1079L59.4023 32.1579C59.0331 31.7452 58.5476 31.4624 58.017 31.3413C57.973 31.5329 57.9497 31.7324 57.9497 31.9374V41.8749C57.9497 43.3385 59.1362 44.5249 60.5997 44.5249H69.8516Z" fill="#00B0F5"/>
<defs>
<linearGradient id="paint0_linear" x1="35.4248" y1="70.0312" x2="43.2181" y2="26.3957" gradientUnits="userSpaceOnUse">
<stop stop-color="#00B0F5"/>
<stop offset="0.769144" stop-color="#65D3FF"/>
</linearGradient>
</defs>
</svg>
