<svg width="81" height="80" viewBox="0 0 81 80" fill="none" xmlns="http://www.w3.org/2000/svg">
<g opacity="0.8">
<rect x="0.290009" width="80" height="80" rx="16" fill="url(#paint0_linear_876_12430)"/>
<rect x="1.79001" y="1.5" width="77" height="77" rx="14.5" stroke="url(#paint1_linear_876_12430)" stroke-width="3"/>
<g filter="url(#filter0_d_876_12430)">
<path fill-rule="evenodd" clip-rule="evenodd" d="M32.2022 43.9975L36.5009 44.0018C41.1722 44.0018 44.8598 46.2248 44.9941 51.2254L44.9985 51.4941C44.9985 52.2611 44.4308 52.9024 43.6595 52.9891L43.5165 52.9977H31.5002C30.6726 52.9977 30.0009 52.3261 30.0009 51.4984C30.0009 50.7401 30.5686 50.0944 31.3399 50.0077L31.4829 49.9991H41.8178C41.1938 47.7154 39.0575 47.0481 36.7695 47.0004H36.4965H31.5002C31.0149 47.0004 30.5556 46.7621 30.2739 46.3678C28.6099 44.0105 22.721 43.1655 19.9996 43.0355V53.3964L32.9995 59.3634C34.3212 60.0177 35.8379 60.1693 37.2505 59.8053L59.762 53.4311C59.3807 52.6164 58.5704 52.0574 57.656 52.0011H57.4914H48.4998C47.6721 52.0011 47.0005 51.3251 47.0005 50.4974C47.0005 49.7391 47.5724 49.0978 48.3394 49.0068L48.4824 48.9981H57.5C60.5377 48.9981 62.999 51.4637 62.999 54.4971C62.999 55.1037 62.635 55.6497 62.076 55.8837L62.05 55.8924L61.9243 55.9357L38.3728 62.6047C36.2842 63.2417 34.0092 63.1073 32.0072 62.2103L31.7126 62.0717L17.872 55.719C17.404 55.5024 17.079 55.0604 17.014 54.5491L17.0097 54.5317L17.001 54.3714V41.4971C17.001 40.6695 17.6727 39.9978 18.5003 39.9978C22.5953 39.9978 29.2252 40.8688 32.2022 43.9975ZM45.9995 22.9983C48.7598 22.9983 51.0001 25.2386 51.0001 27.9989C51.0001 29.8839 49.9601 31.5219 48.4218 32.3755C50.6274 33.0732 52.4171 34.7025 53.3314 36.7998C54.9867 35.0145 56.0007 32.6269 56.0007 30.0009C56.0007 24.4759 51.5244 19.9996 45.9995 19.9996C40.4788 19.9996 35.9982 24.4759 35.9982 30.0009C35.9982 32.6269 37.0122 35.0145 38.6675 36.7998C39.5862 34.7025 41.3758 33.0732 43.5771 32.3755C42.0432 31.5219 40.9988 29.8839 40.9988 27.9989C40.9988 25.2386 43.2391 22.9983 45.9995 22.9983ZM45.9995 26.0012C44.8945 26.0012 44.0018 26.8939 44.0018 27.9989C44.0018 29.1039 44.8945 30.0009 45.9995 30.0009C47.1045 30.0009 48.0014 29.1039 48.0014 27.9989C48.0014 26.8939 47.1045 26.0012 45.9995 26.0012ZM50.8398 38.7498C50.2851 36.5962 48.3308 35.0015 45.9995 35.0015C43.6681 35.0015 41.7138 36.5962 41.1592 38.7498C42.5935 39.5472 44.2445 39.9978 45.9995 39.9978C47.7588 39.9978 49.4054 39.5472 50.8398 38.7498ZM45.9995 17.001C53.1797 17.001 58.9994 22.8206 58.9994 30.0009C58.9994 37.1812 53.1797 43.0008 45.9995 43.0008C38.8192 43.0008 32.9995 37.1812 32.9995 30.0009C32.9995 22.8206 38.8192 17.001 45.9995 17.001Z" fill="white"/>
</g>
</g>
<defs>
<filter id="filter0_d_876_12430" x="16" y="16" width="48" height="49" filterUnits="userSpaceOnUse" color-interpolation-filters="sRGB">
<feFlood flood-opacity="0" result="BackgroundImageFix"/>
<feColorMatrix in="SourceAlpha" type="matrix" values="0 0 0 0 0 0 0 0 0 0 0 0 0 0 0 0 0 0 127 0" result="hardAlpha"/>
<feOffset dy="1"/>
<feColorMatrix type="matrix" values="0 0 0 0 0 0 0 0 0 0 0 0 0 0 0 0 0 0 0.08 0"/>
<feBlend mode="normal" in2="BackgroundImageFix" result="effect1_dropShadow_876_12430"/>
<feBlend mode="normal" in="SourceGraphic" in2="effect1_dropShadow_876_12430" result="shape"/>
</filter>
<linearGradient id="paint0_linear_876_12430" x1="0.290009" y1="0" x2="80.29" y2="83.5" gradientUnits="userSpaceOnUse">
<stop stop-color="#33A0FF"/>
<stop offset="0.338542" stop-color="#0088FF"/>
<stop offset="0.661458" stop-color="#0060DF"/>
<stop offset="1" stop-color="#004FB8"/>
</linearGradient>
<linearGradient id="paint1_linear_876_12430" x1="0.290009" y1="0" x2="80.29" y2="80" gradientUnits="userSpaceOnUse">
<stop stop-color="white" stop-opacity="0.35"/>
<stop offset="0.401042" stop-color="white" stop-opacity="0"/>
</linearGradient>
</defs>
</svg>
