<svg width="81" height="80" viewBox="0 0 81 80" fill="none" xmlns="http://www.w3.org/2000/svg">
<g opacity="0.8">
<rect x="0.290009" width="80" height="80" rx="16" fill="url(#paint0_linear_876_12430)"/>
<rect x="1.79001" y="1.5" width="77" height="77" rx="14.5" stroke="url(#paint1_linear_876_12430)" stroke-width="3"/>
<g clip-path="url(#clip0_876_12430)" filter="url(#filter0_d_876_12430)">
<path d="M19.002 62.4963C19.002 63.012 19.2576 63.5277 19.73 63.7833C20.159 64.0433 20.718 64.0433 21.147 63.7833L30.4592 57.9464L39.7715 63.7833C40.2005 64.0433 40.7595 64.0433 41.2318 63.7833L50.5441 57.9464L59.8564 63.7833C60.0687 63.9133 60.3244 64 60.5844 64C60.84 64 61.0567 63.9567 61.269 63.8267C61.698 63.571 62.0014 63.0987 62.0014 62.5397V37.7012C61.9147 37.1899 61.6547 36.7175 61.2257 36.4575L55.8524 33.0905C55.9477 32.4059 55.9997 31.7082 55.9997 31.0019C55.9997 22.7166 49.2831 16 40.9978 16C32.7169 16 26.0003 22.7166 26.0003 31.0019C26.0003 31.4916 26.0219 31.9769 26.0696 32.4579L19.6866 36.4575C19.2576 36.7175 19.002 37.1899 19.002 37.7012V62.4963ZM35.6592 36.1499L36.2745 34.7849C36.3482 34.6159 36.4912 34.4859 36.6645 34.4252C36.6992 34.4209 36.7339 34.4165 36.7729 34.4165C36.8075 34.4165 36.8465 34.4209 36.8812 34.4252C36.9895 34.4252 37.0979 34.4512 37.1975 34.5075C38.2332 35.0275 39.3815 35.3005 40.5385 35.3005C41.9035 35.3005 42.9002 34.7415 42.9002 33.9745C42.9002 33.4762 42.6098 32.8782 40.4865 32.1676C38.1812 31.4439 35.8325 30.3562 35.8325 28.0163C35.8325 26.2093 37.1412 24.8096 39.3382 24.2593L39.6632 24.1509V22.6603C39.6675 22.292 39.9665 22.0016 40.3305 22.0016H41.9035C42.2718 22.0016 42.5665 22.292 42.5708 22.6603V23.9993L42.9608 24.0426C43.8361 24.1379 44.6941 24.3763 45.4915 24.7489C45.7255 24.8573 45.8771 25.0913 45.8771 25.3513C45.8771 25.4553 45.8555 25.5593 45.8078 25.6503L45.1838 26.9503C45.0755 27.1886 44.8415 27.3403 44.5815 27.3403C44.4775 27.3403 44.3735 27.3143 44.2781 27.2666C43.3985 26.8506 42.4322 26.6339 41.4528 26.6339C41.4225 26.6339 41.3835 26.6339 41.3532 26.6339C39.9535 26.6339 39.3208 27.1799 39.3208 27.7216C39.3208 28.2632 39.9708 28.7312 42.0292 29.4072C44.0918 30.0876 46.4231 31.2186 46.4231 33.7665C46.4231 35.1575 45.4568 37.0252 42.7442 37.7055L42.4105 37.7965V39.3305C42.4105 39.6988 42.1115 39.9978 41.7432 39.9978H40.1485C39.7802 39.9978 39.4812 39.6988 39.4812 39.3305V37.9568H39.0825C37.9862 37.8658 36.9115 37.5539 35.9322 37.0555C35.7155 36.9385 35.5769 36.7132 35.5769 36.4705C35.5769 36.3579 35.6072 36.2495 35.6592 36.1499ZM55.0897 36.1542L58.9984 38.6025V59.71L52.0001 55.3247V41.1938C53.3434 39.7508 54.4007 38.0392 55.0897 36.1542ZM49.0014 43.6898V55.3724L42.0032 59.762V45.9648C44.5641 45.7958 46.9518 44.9855 49.0014 43.6898ZM39.0002 45.8651V59.762L32.0019 55.3767V43.0008C34.0039 44.5045 36.3959 45.5185 39.0002 45.8651ZM28.9989 40.0022V55.3204L22.0006 59.71V38.5505L26.7153 35.5909C27.2309 37.1985 28.0109 38.6848 28.9989 40.0022ZM40.9978 18.9986C47.6278 18.9986 53.0011 24.3719 53.0011 31.0019C53.0011 37.6275 47.6278 43.0008 40.9978 43.0008C34.3722 43.0008 28.9989 37.6275 28.9989 31.0019C28.9989 24.3719 34.3722 18.9986 40.9978 18.9986Z" fill="white"/>
</g>
</g>
<defs>
<filter id="filter0_d_876_12430" x="16" y="16" width="48" height="49" filterUnits="userSpaceOnUse" color-interpolation-filters="sRGB">
<feFlood flood-opacity="0" result="BackgroundImageFix"/>
<feColorMatrix in="SourceAlpha" type="matrix" values="0 0 0 0 0 0 0 0 0 0 0 0 0 0 0 0 0 0 127 0" result="hardAlpha"/>
<feOffset dy="1"/>
<feColorMatrix type="matrix" values="0 0 0 0 0 0 0 0 0 0 0 0 0 0 0 0 0 0 0.08 0"/>
<feBlend mode="normal" in2="BackgroundImageFix" result="effect1_dropShadow_876_12430"/>
<feBlend mode="normal" in="SourceGraphic" in2="effect1_dropShadow_876_12430" result="shape"/>
</filter>
<linearGradient id="paint0_linear_876_12430" x1="0.290009" y1="0" x2="80.29" y2="83.5" gradientUnits="userSpaceOnUse">
<stop stop-color="#33A0FF"/>
<stop offset="0.338542" stop-color="#0088FF"/>
<stop offset="0.661458" stop-color="#0060DF"/>
<stop offset="1" stop-color="#004FB8"/>
</linearGradient>
<linearGradient id="paint1_linear_876_12430" x1="0.290009" y1="0" x2="80.29" y2="80" gradientUnits="userSpaceOnUse">
<stop stop-color="white" stop-opacity="0.35"/>
<stop offset="0.401042" stop-color="white" stop-opacity="0"/>
</linearGradient>
<clipPath id="clip0_876_12430">
<rect width="48" height="48" fill="white" transform="translate(16 16)"/>
</clipPath>
</defs>
</svg>
