<svg width="81" height="80" viewBox="0 0 81 80" fill="none" xmlns="http://www.w3.org/2000/svg">
<g opacity="0.8">
<rect x="0.290009" width="80" height="80" rx="16" fill="url(#paint0_linear_876_12430)"/>
<rect x="1.79001" y="1.5" width="77" height="77" rx="14.5" stroke="url(#paint1_linear_876_12430)" stroke-width="3"/>
<g clip-path="url(#clip0_876_12430)" filter="url(#filter0_d_876_12430)">
<path fill-rule="evenodd" clip-rule="evenodd" d="M56.993 24.8963C56.941 24.3849 56.5121 23.9993 56.0007 23.9993H50.8874C49.5138 19.38 45.2368 16 40.1798 16C35.1185 16 30.8416 19.38 29.4636 23.9993H23.9993C23.4879 23.9993 23.0589 24.3849 23.0069 24.8963L19.0073 62.895C18.977 63.1767 19.068 63.4583 19.2543 63.6707C19.445 63.883 19.7136 64 19.9996 64H60.0004C60.282 64 60.555 63.8787 60.7457 63.6663C60.932 63.454 61.0274 63.1767 60.9927 62.895L56.993 24.8963ZM40.1798 31.6779C37.6968 31.6779 35.6775 29.6586 35.6775 27.1756C35.6775 24.6926 37.6968 22.6776 40.1798 22.6776C42.6628 22.6776 44.6778 24.6969 44.6778 27.1799C44.6778 29.6586 42.6628 31.6779 40.1798 31.6779ZM40.1798 28.6792C41.0075 28.6792 41.6792 28.0033 41.6792 27.1799C41.6792 26.3523 41.0075 25.6763 40.1798 25.6763C39.3522 25.6763 38.6805 26.3523 38.6805 27.1756C38.6805 28.0033 39.3522 28.6792 40.1798 28.6792ZM24.9049 35.4999H30.2782L30.4212 33.2942C29.5286 31.5262 28.5016 29.1516 28.5016 27.1756V26.9979H25.8019L24.9049 35.4999ZM54.1981 26.9979H51.8538V27.1756C51.8538 29.1559 50.8268 31.5262 49.9341 33.2942L50.0771 35.4999H55.0951L54.1981 26.9979ZM24.5886 38.4985L23.4316 49.5008H29.3726L30.0832 38.4985H24.5886ZM23.1153 52.4994L22.2226 61.0014H28.6272L29.1776 52.4994H23.1153ZM31.6302 61.0014H48.7251L48.1748 52.4994H32.1806L31.6302 61.0014ZM51.7281 61.0014H57.7774L56.8847 52.4994H51.1778L51.7281 61.0014ZM56.5684 49.5008L55.4071 38.4985H50.2721L50.9871 49.5008H56.5684ZM32.3756 49.5008H47.9754L47.2648 38.4985H46.8575C45.1718 41.0422 43.2825 43.6031 41.3325 45.9475C41.0465 46.2898 40.6262 46.4891 40.1798 46.4891C39.7378 46.4891 39.3175 46.2898 39.0315 45.9475C37.0815 43.6291 35.1749 41.0292 33.4979 38.4985H33.0905L32.3756 49.5008ZM40.1798 41.7875C42.9965 38.1432 48.3568 30.6076 48.3568 27.1756C48.3568 22.669 44.6865 18.9986 40.1798 18.9986C35.6689 18.9986 31.9986 22.6646 31.9986 27.1756C31.9986 30.6076 37.3589 38.1432 40.1798 41.7875Z" fill="white"/>
</g>
</g>
<defs>
<filter id="filter0_d_876_12430" x="16" y="16" width="48" height="49" filterUnits="userSpaceOnUse" color-interpolation-filters="sRGB">
<feFlood flood-opacity="0" result="BackgroundImageFix"/>
<feColorMatrix in="SourceAlpha" type="matrix" values="0 0 0 0 0 0 0 0 0 0 0 0 0 0 0 0 0 0 127 0" result="hardAlpha"/>
<feOffset dy="1"/>
<feColorMatrix type="matrix" values="0 0 0 0 0 0 0 0 0 0 0 0 0 0 0 0 0 0 0.08 0"/>
<feBlend mode="normal" in2="BackgroundImageFix" result="effect1_dropShadow_876_12430"/>
<feBlend mode="normal" in="SourceGraphic" in2="effect1_dropShadow_876_12430" result="shape"/>
</filter>
<linearGradient id="paint0_linear_876_12430" x1="0.290009" y1="0" x2="80.29" y2="83.5" gradientUnits="userSpaceOnUse">
<stop stop-color="#33A0FF"/>
<stop offset="0.338542" stop-color="#0088FF"/>
<stop offset="0.661458" stop-color="#0060DF"/>
<stop offset="1" stop-color="#004FB8"/>
</linearGradient>
<linearGradient id="paint1_linear_876_12430" x1="0.290009" y1="0" x2="80.29" y2="80" gradientUnits="userSpaceOnUse">
<stop stop-color="white" stop-opacity="0.35"/>
<stop offset="0.401042" stop-color="white" stop-opacity="0"/>
</linearGradient>
<clipPath id="clip0_876_12430">
<rect width="48" height="48" fill="white" transform="translate(16 16)"/>
</clipPath>
</defs>
</svg>
