<svg width="81" height="80" viewBox="0 0 81 80" fill="none" xmlns="http://www.w3.org/2000/svg">
<g opacity="0.8">
<rect x="0.290009" width="80" height="80" rx="16" fill="url(#paint0_linear_876_12430)"/>
<rect x="1.79001" y="1.5" width="77" height="77" rx="14.5" stroke="url(#paint1_linear_876_12430)" stroke-width="3"/>
<g filter="url(#filter0_d_876_12430)">
<path fill-rule="evenodd" clip-rule="evenodd" d="M56.9844 45.9085C56.7504 46.5801 56.4774 47.2388 56.1697 47.8801L57.6604 52.0531C57.838 52.5471 57.76 53.0584 57.435 53.4788C56.2824 54.9694 54.9347 56.3128 53.4441 57.4654C53.0281 57.7904 52.5167 57.8684 52.0227 57.6951L47.8324 56.1958C47.1955 56.4991 46.5368 56.7677 45.8651 56.9887L43.9931 60.9754C43.7721 61.452 43.3561 61.7554 42.8318 61.8247C41.8958 61.946 40.9512 62.011 40.0065 62.011C39.0618 62.011 38.1172 61.946 37.1812 61.8247C36.6569 61.7554 36.2409 61.452 36.0155 60.9754L34.1392 56.9801C33.4675 56.7461 32.8132 56.4731 32.1762 56.1568L27.9989 57.6517C27.5049 57.8251 26.9979 57.7471 26.5819 57.4264C25.0826 56.2738 23.7349 54.9261 22.5823 53.4268C22.2616 53.0108 22.1836 52.5038 22.3613 52.0098L23.8519 47.8411C23.5443 47.1998 23.2669 46.5455 23.0329 45.8738L19.0333 43.9932C18.5566 43.7722 18.2533 43.3518 18.184 42.8318C18.0626 41.8958 18.002 40.9469 18.002 40.0065C18.002 39.0619 18.0626 38.1172 18.184 37.1812C18.2533 36.6569 18.5566 36.2409 19.0333 36.0156L23.0329 34.1392C23.2669 33.4676 23.5399 32.8089 23.8519 32.1676L22.3613 28.0033C22.1836 27.5049 22.2616 26.998 22.5823 26.582C23.7349 25.0826 25.0826 23.735 26.5819 22.5823C26.9979 22.2617 27.5049 22.1837 27.9989 22.3613L32.1762 23.852C32.8132 23.5356 33.4719 23.2626 34.1435 23.0286L36.0199 19.0333C36.2409 18.561 36.6525 18.2577 37.1682 18.1883C38.1085 18.0583 39.0575 17.989 40.0065 17.989C40.9555 17.989 41.9045 18.0583 42.8448 18.1883C43.3605 18.2577 43.7721 18.561 43.9931 19.0333L45.8695 23.0286C46.5455 23.2626 47.2041 23.5356 47.8454 23.852L52.0011 22.3787C52.4994 22.201 53.0064 22.2833 53.4224 22.6083C54.9131 23.761 56.2607 25.1086 57.4134 26.5993C57.7384 27.0153 57.8164 27.5266 57.6387 28.0249L56.1481 32.1936C56.4557 32.8306 56.7287 33.4892 56.9584 34.1609L60.9624 36.0372C61.439 36.2582 61.7467 36.6786 61.816 37.1985C61.9373 38.1345 61.998 39.0835 61.998 40.0282C61.998 40.9685 61.9373 41.9175 61.816 42.8535C61.7467 43.3735 61.4477 43.7852 60.971 44.0105L56.9844 45.9085ZM49.4054 39.8289C50.2374 39.8289 50.9091 40.5005 50.9091 41.3325C50.9091 41.4235 50.9004 41.5145 50.8831 41.6012C50.1074 46.9181 45.5315 51.0001 39.9978 51.0001C33.9225 51.0001 28.9999 46.0732 28.9999 39.9979C28.9999 33.9226 33.9225 28.9999 39.9978 28.9999C41.1635 28.9999 42.2901 29.1819 43.3431 29.5156C43.9368 29.7149 44.3615 30.2783 44.3615 30.9413C44.3615 31.7689 43.6898 32.4406 42.8621 32.4406C42.7148 32.4406 42.5761 32.4189 42.4418 32.3799L42.4158 32.3712L42.4028 32.3669L42.3811 32.3626C41.6272 32.1242 40.8298 31.9986 39.9978 31.9986C35.5822 31.9986 31.9986 35.5822 31.9986 39.9979C31.9986 44.4178 35.5822 48.0015 39.9978 48.0015C44.0321 48.0015 47.3644 45.0158 47.9191 41.1375C48.0144 40.4009 48.6428 39.8289 49.4054 39.8289ZM41.1028 43.2868L49.5614 34.8326C50.1464 34.2476 50.1464 33.2942 49.5614 32.7092C48.9764 32.1242 48.0231 32.1242 47.4381 32.7092L40.0152 40.1322L37.5409 37.6579C36.9559 37.0772 36.0025 37.0772 35.4219 37.6579C34.8369 38.2429 34.8369 39.1962 35.4219 39.7812L38.9578 43.3172C39.5385 43.8978 40.4918 43.8978 41.0768 43.3172L41.1028 43.2868ZM58.9257 41.6618C58.9777 41.1202 58.9994 40.5742 58.9994 40.0282C58.9994 39.4822 58.9777 38.9362 58.93 38.3945L55.0951 36.6006C54.6964 36.4142 54.4234 36.0979 54.2977 35.6732C54.0161 34.7502 53.6434 33.8532 53.1927 32.9952C52.9891 32.6096 52.9587 32.2022 53.1061 31.7906L54.5317 27.8039C53.8254 26.9676 53.0497 26.192 52.2134 25.4856L48.2398 26.894C47.8238 27.0413 47.4121 27.011 47.0264 26.803C46.1771 26.3436 45.2801 25.971 44.3571 25.6936C43.9325 25.568 43.6205 25.295 43.4298 24.892L41.6315 21.0657C41.0942 21.0137 40.5482 20.9877 40.0065 20.9877C39.4605 20.9877 38.9188 21.0137 38.3772 21.0657L36.5789 24.892C36.3925 25.295 36.0762 25.5636 35.6559 25.6936C34.7372 25.971 33.8445 26.3436 32.9995 26.803C32.6139 27.011 32.1979 27.0456 31.7819 26.894L27.7822 25.4683C26.9459 26.1703 26.1703 26.9416 25.4683 27.7779L26.8939 31.7689C27.0456 32.1806 27.0153 32.5922 26.8073 32.9779C26.3523 33.8316 25.9753 34.7329 25.6893 35.6602C25.5636 36.0806 25.2906 36.3926 24.8919 36.5789L21.07 38.3729C21.0223 38.9145 21.0006 39.4605 21.0006 40.0065C21.0006 40.5482 21.0223 41.0942 21.07 41.6358L24.8963 43.4342C25.2906 43.6205 25.5636 43.9325 25.6893 44.3528C25.9753 45.2758 26.3523 46.1772 26.8073 47.0308C27.0153 47.4165 27.0456 47.8281 26.8939 48.2441L25.4683 52.2308C26.1703 53.0671 26.9459 53.8428 27.7822 54.5448L31.7819 53.1148C32.1979 52.9674 32.6095 52.9978 32.9995 53.2101C33.8445 53.6651 34.7372 54.0421 35.6559 54.3194C36.0762 54.4451 36.3925 54.7181 36.5789 55.1168L38.3728 58.9387C38.9145 58.9864 39.4605 59.0124 40.0065 59.0124C40.5482 59.0124 41.0942 58.9864 41.6358 58.9387L43.4341 55.1168C43.6205 54.7094 43.9455 54.4364 44.3745 54.3108C45.2975 54.0464 46.1945 53.6824 47.0438 53.2404C47.4294 53.0411 47.8324 53.0108 48.2441 53.1581L52.2394 54.5838C53.0757 53.8818 53.8514 53.1061 54.5534 52.2698L53.1277 48.2875C52.9804 47.8758 53.0107 47.4641 53.2144 47.0785C53.6651 46.2248 54.0377 45.3235 54.3194 44.3962C54.4451 43.9758 54.7137 43.6638 55.1124 43.4775L58.9257 41.6618Z" fill="white"/>
</g>
</g>
<defs>
<filter id="filter0_d_876_12430" x="16" y="16" width="48" height="49" filterUnits="userSpaceOnUse" color-interpolation-filters="sRGB">
<feFlood flood-opacity="0" result="BackgroundImageFix"/>
<feColorMatrix in="SourceAlpha" type="matrix" values="0 0 0 0 0 0 0 0 0 0 0 0 0 0 0 0 0 0 127 0" result="hardAlpha"/>
<feOffset dy="1"/>
<feColorMatrix type="matrix" values="0 0 0 0 0 0 0 0 0 0 0 0 0 0 0 0 0 0 0.08 0"/>
<feBlend mode="normal" in2="BackgroundImageFix" result="effect1_dropShadow_876_12430"/>
<feBlend mode="normal" in="SourceGraphic" in2="effect1_dropShadow_876_12430" result="shape"/>
</filter>
<linearGradient id="paint0_linear_876_12430" x1="0.290009" y1="0" x2="80.29" y2="83.5" gradientUnits="userSpaceOnUse">
<stop stop-color="#33A0FF"/>
<stop offset="0.338542" stop-color="#0088FF"/>
<stop offset="0.661458" stop-color="#0060DF"/>
<stop offset="1" stop-color="#004FB8"/>
</linearGradient>
<linearGradient id="paint1_linear_876_12430" x1="0.290009" y1="0" x2="80.29" y2="80" gradientUnits="userSpaceOnUse">
<stop stop-color="white" stop-opacity="0.35"/>
<stop offset="0.401042" stop-color="white" stop-opacity="0"/>
</linearGradient>
</defs>
</svg>
