<svg width="81" height="80" viewBox="0 0 81 80" fill="none" xmlns="http://www.w3.org/2000/svg">
<g opacity="0.8">
<rect x="0.290009" width="80" height="80" rx="16" fill="url(#paint0_linear_876_12430)"/>
<rect x="1.79001" y="1.5" width="77" height="77" rx="14.5" stroke="url(#paint1_linear_876_12430)" stroke-width="3"/>
<g clip-path="url(#clip0_876_12430)" filter="url(#filter0_d_876_12430)">
<path d="M55.8784 64H24.9776C22.733 64 20.9996 62.2017 20.9996 60.022V16H53.1267L59.9994 22.877V59.944C59.9344 62.2017 58.136 64 55.8784 64C55.9434 64 55.9434 64 55.8784 64ZM39.4985 22.0016C45.3008 22.0016 49.9981 26.6989 49.9981 32.5012C49.9981 38.2992 45.3008 43.0008 39.4985 43.0008C33.7005 43.0008 28.9989 38.2992 28.9989 32.5012C28.9989 26.6989 33.7005 22.0016 39.4985 22.0016ZM41.0022 31.8816L45.7558 36.6352C46.5445 35.4522 46.9995 34.0265 46.9995 32.5012C46.9995 28.8699 44.4255 25.8453 41.0022 25.1519V31.8816ZM43.6368 38.7585L37.9992 33.1209V25.1519C34.5759 25.8453 32.0019 28.8699 32.0019 32.5012C32.0019 36.6439 35.3602 40.0022 39.4985 40.0022C41.0282 40.0022 42.4495 39.5428 43.6368 38.7585ZM28.9989 47.0005H52.0001V49.9991H28.9989V47.0005ZM28.9989 52.9977H52.0001V56.0007H28.9989V52.9977ZM57.0007 24.1163L51.8831 18.9986H23.9983V60.022C23.9983 60.5767 24.4229 61.0014 24.9776 61.0014H55.8914C56.5284 60.9927 56.9834 60.4814 57.0007 59.9007V24.1163Z" fill="white"/>
</g>
</g>
<defs>
<filter id="filter0_d_876_12430" x="16" y="16" width="48" height="49" filterUnits="userSpaceOnUse" color-interpolation-filters="sRGB">
<feFlood flood-opacity="0" result="BackgroundImageFix"/>
<feColorMatrix in="SourceAlpha" type="matrix" values="0 0 0 0 0 0 0 0 0 0 0 0 0 0 0 0 0 0 127 0" result="hardAlpha"/>
<feOffset dy="1"/>
<feColorMatrix type="matrix" values="0 0 0 0 0 0 0 0 0 0 0 0 0 0 0 0 0 0 0.08 0"/>
<feBlend mode="normal" in2="BackgroundImageFix" result="effect1_dropShadow_876_12430"/>
<feBlend mode="normal" in="SourceGraphic" in2="effect1_dropShadow_876_12430" result="shape"/>
</filter>
<linearGradient id="paint0_linear_876_12430" x1="0.290009" y1="0" x2="80.29" y2="83.5" gradientUnits="userSpaceOnUse">
<stop stop-color="#33A0FF"/>
<stop offset="0.338542" stop-color="#0088FF"/>
<stop offset="0.661458" stop-color="#0060DF"/>
<stop offset="1" stop-color="#004FB8"/>
</linearGradient>
<linearGradient id="paint1_linear_876_12430" x1="0.290009" y1="0" x2="80.29" y2="80" gradientUnits="userSpaceOnUse">
<stop stop-color="white" stop-opacity="0.35"/>
<stop offset="0.401042" stop-color="white" stop-opacity="0"/>
</linearGradient>
<clipPath id="clip0_876_12430">
<rect width="48" height="48" fill="white" transform="translate(16 16)"/>
</clipPath>
</defs>
</svg>
