<svg width="80" height="80" viewBox="0 0 80 80" fill="none" xmlns="http://www.w3.org/2000/svg">
<g opacity="0.8">
<rect width="80" height="80" rx="16" fill="url(#paint0_linear_772_12679)"/>
<rect x="1.5" y="1.5" width="77" height="77" rx="14.5" stroke="url(#paint1_linear_772_12679)" stroke-width="3"/>
<path d="M40.5417 63.8333C53.4053 63.8333 63.8333 53.4053 63.8333 40.5417C63.8333 27.678 53.4053 17.25 40.5417 17.25C27.678 17.25 17.25 27.678 17.25 40.5417C17.25 53.4053 27.678 63.8333 40.5417 63.8333Z" stroke="white" stroke-width="2"/>
<path d="M49.6146 40.5417C49.6146 47.1654 48.4938 53.1111 46.7232 57.3606C45.837 59.4879 44.8091 61.1386 43.7232 62.2408C42.641 63.3393 41.5665 63.8333 40.5417 63.8333C39.5168 63.8333 38.4424 63.3393 37.3601 62.2408C36.2742 61.1386 35.2464 59.4879 34.3601 57.3606C32.5895 53.1111 31.4688 47.1654 31.4688 40.5417C31.4688 33.918 32.5895 27.9722 34.3601 23.7226C35.2464 21.5954 36.2742 19.9448 37.3601 18.8424C38.4424 17.7439 39.5168 17.25 40.5417 17.25C41.5665 17.25 42.641 17.7439 43.7232 18.8424C44.8091 19.9448 45.837 21.5954 46.7232 23.7226C48.4938 27.9722 49.6146 33.918 49.6146 40.5417Z" stroke="white" stroke-width="2"/>
<path d="M40.5417 49.6146C33.918 49.6146 27.9722 48.4938 23.7226 46.7232C21.5954 45.837 19.9448 44.8091 18.8424 43.7232C17.7439 42.641 17.25 41.5665 17.25 40.5417C17.25 39.5168 17.7439 38.4424 18.8424 37.3601C19.9448 36.2742 21.5954 35.2464 23.7226 34.3601C27.9722 32.5895 33.918 31.4688 40.5417 31.4688C47.1654 31.4688 53.1111 32.5895 57.3606 34.3601C59.4879 35.2464 61.1386 36.2742 62.2408 37.3601C63.3393 38.4424 63.8333 39.5168 63.8333 40.5417C63.8333 41.5665 63.3393 42.641 62.2408 43.7232C61.1386 44.8091 59.4879 45.837 57.3606 46.7232C53.1111 48.4938 47.1654 49.6146 40.5417 49.6146Z" stroke="white" stroke-width="2"/>
<path d="M31.4012 55.8439C34.8041 55.8439 37.5627 53.0853 37.5627 49.6825C37.5627 46.2796 34.8041 43.521 31.4012 43.521C27.9983 43.521 25.2397 46.2796 25.2397 49.6825C25.2397 53.0853 27.9983 55.8439 31.4012 55.8439Z" fill="#0060DF" stroke="white" stroke-width="2"/>
<path d="M49.6825 37.5624C53.0853 37.5624 55.8439 34.8038 55.8439 31.401C55.8439 27.9981 53.0853 25.2395 49.6825 25.2395C46.2796 25.2395 43.521 27.9981 43.521 31.401C43.521 34.8038 46.2796 37.5624 49.6825 37.5624Z" fill="#0060DF" stroke="white" stroke-width="2"/>
</g>
<defs>
<linearGradient id="paint0_linear_772_12679" x1="0" y1="0" x2="80" y2="83.5" gradientUnits="userSpaceOnUse">
<stop stop-color="#33A0FF"/>
<stop offset="0.352755" stop-color="#0088FF"/>
<stop offset="0.651012" stop-color="#0060DF"/>
<stop offset="1" stop-color="#004FB8"/>
</linearGradient>
<linearGradient id="paint1_linear_772_12679" x1="0" y1="0" x2="80" y2="80" gradientUnits="userSpaceOnUse">
<stop stop-color="white" stop-opacity="0.3"/>
<stop offset="0.401042" stop-color="white" stop-opacity="0"/>
</linearGradient>
</defs>
</svg>
