<svg width="38" height="33" viewBox="0 0 38 33" fill="none" xmlns="http://www.w3.org/2000/svg">
<path d="M36.084 0.252029C37.3613 5.8964 38 10.7953 38 14.9487C38 20.9125 36.6162 25.3854 33.8487 28.3674C31.0812 31.4558 27.0364 33 21.7143 33V26.6101C24.4818 26.6101 26.5042 25.8647 27.7815 24.3737C28.9524 22.8827 29.5378 20.6463 29.5378 17.6644V13.9902H21.5546V0.252029H36.084ZM14.5294 0.252029C15.8067 5.8964 16.4454 10.7953 16.4454 14.9487C16.4454 20.9125 15.0616 25.3854 12.2941 28.3674C9.52661 31.4558 5.48179 33 0.159664 33V26.6101C2.92717 26.6101 4.94958 25.8647 6.22689 24.3737C7.39776 22.8827 7.98319 20.6463 7.98319 17.6644V13.9902H3.8147e-06V0.252029H14.5294Z" fill="#0086ff"/>
</svg>
